<svg xmlns="http://www.w3.org/2000/svg" viewBox="0 0 1200 800" width="1200" height="800">
  <defs>
    <linearGradient id="bg" x1="0" y1="0" x2="1" y2="1">
      <stop offset="0%" stop-color="#F0EEE6"/>
      <stop offset="100%" stop-color="#EEECE2"/>
    </linearGradient>
  </defs>

  <rect x="0" y="0" width="1200" height="800" fill="url(#bg)"/>

  <!-- Claude lockup: coral starburst + "Claude", visually centered on x=600, vcenter y=240 -->
  <g transform="translate(480.5,240)">
    <g stroke="#D97757" stroke-width="8" stroke-linecap="round">
      <line x1="0.0" y1="-18.0" x2="0.0" y2="-60.0"/>
      <line x1="9.0" y1="-15.59" x2="30.0" y2="-51.96"/>
      <line x1="15.59" y1="-9.0" x2="51.96" y2="-30.0"/>
      <line x1="18.0" y1="0.0" x2="60.0" y2="0.0"/>
      <line x1="15.59" y1="9.0" x2="51.96" y2="30.0"/>
      <line x1="9.0" y1="15.59" x2="30.0" y2="51.96"/>
      <line x1="0.0" y1="18.0" x2="0.0" y2="60.0"/>
      <line x1="-9.0" y1="15.59" x2="-30.0" y2="51.96"/>
      <line x1="-15.59" y1="9.0" x2="-51.96" y2="30.0"/>
      <line x1="-18.0" y1="0.0" x2="-60.0" y2="0.0"/>
      <line x1="-15.59" y1="-9.0" x2="-51.96" y2="-30.0"/>
      <line x1="-9.0" y1="-15.59" x2="-30.0" y2="-51.96"/>
    </g>
    <circle cx="0" cy="0" r="7" fill="#D97757"/>
    <text x="88" y="0" dominant-baseline="central" font-family="-apple-system, BlinkMacSystemFont, 'Segoe UI', Roboto, sans-serif" font-size="66" font-weight="600" fill="#1A1A18">Claude</text>
  </g>

  <!-- Real SafeDeps logo, scaled 1.95, visible art centered on x=600, vcenter y=455 -->
  <g transform="translate(196.7,357.5) scale(1.95)">
    <!-- shield --><path d="M48 14 L78 24 V50 C78 68 65 79 48 86 C31 79 18 68 18 50 V24 Z" fill="#16a34a"/>
    <!-- checkmark --><path d="M34 50 L44 60 L63 38" fill="none" stroke="#ffffff" stroke-width="6" stroke-linecap="round" stroke-linejoin="round"/>
    <!-- wordmark --><text x="100" y="52" font-family="-apple-system, BlinkMacSystemFont, 'Segoe UI', Roboto, sans-serif" font-size="40" font-weight="700" letter-spacing="-1.5" fill="#0f172a">safedeps</text>
    <!-- tagline --><text x="102" y="74" font-family="-apple-system, BlinkMacSystemFont, 'Segoe UI', Roboto, sans-serif" font-size="14" font-weight="400" letter-spacing="0.2" fill="#64748b">catches risky dependencies your AI can't see</text>
  </g>
</svg>
